<svg width="174" height="174" viewBox="0 0 174 174" fill="none" xmlns="http://www.w3.org/2000/svg">
<path opacity="0.2" d="M87 174C135.049 174 174 135.049 174 87C174 38.9512 135.049 0 87 0C38.9512 0 0 38.9512 0 87C0 135.049 38.9512 174 87 174Z" fill="#F3BA2F"/>
<path fill-rule="evenodd" clip-rule="evenodd" d="M68.8116 79.5222L87.0089 61.3328L105.214 79.537L115.796 68.9475L87.0089 40.1538L58.2217 68.9401L68.8116 79.5222ZM40.1538 87.0016L50.7398 76.416L61.3258 87.0016L50.7398 97.5873L40.1538 87.0016ZM87.009 112.675L68.8117 94.4778L58.207 105.053L58.2218 105.067L87.009 133.846L115.796 105.053L115.804 105.045L105.214 94.4704L87.009 112.675ZM112.674 87.0043L123.26 76.4186L133.846 87.0043L123.26 97.5899L112.674 87.0043ZM87.009 76.2514L97.7468 86.9963H97.7542L97.7468 87.0037L87.009 97.7486L76.2711 87.0185L76.2563 86.9963L76.2711 86.9815L78.1508 85.1019L79.0684 84.1917L87.009 76.2514Z" fill="#F3BA2F"/>
</svg>
